<svg width="512" height="512" viewBox="0 0 512 512" fill="none" xmlns="http://www.w3.org/2000/svg">
  <rect width="512" height="512" rx="40" fill="#181a1b"/>
  
  <g transform="translate(181 120)">
    <path d="M0 10C0 4.47715 4.47715 0 10 0H140C145.523 0 150 4.47715 150 10V200C150 205.523 145.523 210 140 210H10C4.47715 210 0 205.523 0 200V10Z" fill="#F3F4F6"/>
    <path d="M0 10H150V200H0V10Z" fill="url(#paint0_linear_texture)" fill-opacity="0.05"/>
    
    <path d="M0 15H150V195H0V15Z" fill="#FFFFFF"/> <rect width="150" height="15" rx="5" fill="#E5E7EB"/> <path d="M0 205V210H150V205H0Z" fill="#FFFFFF"/> <ellipse cx="75" cy="212" rx="60" ry="12" fill="#000000" fill-opacity="0.3" filter="url(#filter0_f_bag_shadow)"/>
    
    <path d="M75 55L78.674 61.1636L85.836 62.1158L80.825 67.2458L82.128 74.336L75 70.83L67.872 74.336L69.175 67.2458L64.164 62.1158L71.326 61.1636L75 55Z" fill="#F59E0B"/> <path d="M75 35V95M60 55L90 75M90 55L60 75" stroke="#F59E0B" stroke-width="2" stroke-linecap="round"/> <text x="75" y="108" font-family="Arial, sans-serif" font-weight="600" font-size="14" fill="#F59E0B" text-anchor="middle">FLOUR</text>
  </g>
  
  <text x="256" y="370" font-family="Arial, sans-serif" font-weight="900" font-size="36" fill="#F59E0B" text-anchor="middle" style="letter-spacing: 2px;">CAPUTO</text>
  
  <text x="256" y="405" font-family="Arial, sans-serif" font-size="20" fill="#fafafa" text-anchor="middle">Cuoco</text>
  
  <defs>
    <linearGradient id="paint0_linear_texture" x1="0" y1="0" x2="150" y2="210" gradientUnits="userSpaceOnUse">
      <stop stop-color="black" stop-opacity="0.1"/>
      <stop offset="1" stop-color="white" stop-opacity="0.1"/>
    </linearGradient>
    <filter id="filter0_f_bag_shadow" x="0" y="190" width="150" height="44" filterUnits="userSpaceOnUse" color-interpolation-filters="sRGB">
      <feFlood flood-opacity="0" result="BackdropColor"/>
      <feBlend mode="normal" in="SourceGraphic" in2="BackdropColor" result="shape"/>
      <feGaussianBlur stdDeviation="5" result="effect1_foregroundBlur_shadow"/>
    </filter>
  </defs>
</svg>